<svg width="38" height="38" viewBox="0 0 38 38" fill="none" xmlns="http://www.w3.org/2000/svg">
<g filter="url(#filter0_d_3_2)">
<path fill-rule="evenodd" clip-rule="evenodd" d="M18.9999 0C28.3883 0 36 7.61116 36 17C36 26.3888 28.3883 34 18.9999 34C9.6111 34 2 26.3888 2 17C2 7.61116 9.6111 0 18.9999 0ZM18.3854 1.2721C16.446 1.54504 14.5993 3.10342 13.1658 5.70979C12.75 6.46581 12.3748 7.30104 12.0479 8.20287C13.9971 7.71304 16.1383 7.42426 18.3854 7.37959V1.2721ZM10.611 8.61118C11.0177 7.33514 11.515 6.16114 12.089 5.11755C12.7996 3.8255 13.643 2.70976 14.5932 1.8528C9.42614 3.35345 5.3534 7.42627 3.85273 12.5933C4.7097 11.6431 5.8254 10.7998 7.11747 10.0892C8.16109 9.51516 9.33502 9.01774 10.611 8.61118ZM10.2028 10.0479C9.71293 11.9972 9.42419 14.1384 9.37948 16.3855H3.27201C3.54495 14.4461 5.10333 12.5994 7.70975 11.1659C8.46573 10.7501 9.30093 10.3749 10.2028 10.0479ZM10.6087 16.3855C10.6594 13.9332 11.0125 11.6309 11.5966 9.59667C13.6308 9.01255 15.9331 8.65946 18.3854 8.60872V11.2632C17.4706 13.6053 15.6047 15.471 13.2625 16.3855H10.6087ZM9.37948 17.6145H3.27201C3.54495 19.5539 5.10333 21.4005 7.70975 22.8341C8.46573 23.2499 9.30093 23.6251 10.2028 23.9521C9.71293 22.0028 9.42419 19.8616 9.37948 17.6145ZM11.5966 24.4033C11.0125 22.3691 10.6594 20.0668 10.6087 17.6145H13.2625C15.6047 18.529 17.4706 20.3947 18.3854 22.7368V25.3913C15.9331 25.3405 13.6308 24.9875 11.5966 24.4033ZM10.611 25.3888C9.33502 24.9823 8.16109 24.4848 7.11747 23.9108C5.8254 23.2002 4.7097 22.3569 3.85273 21.4067C5.3534 26.5737 9.42614 30.6466 14.5932 32.1472C13.643 31.2902 12.7996 30.1745 12.089 28.8824C11.515 27.8389 11.0177 26.6648 10.611 25.3888ZM18.3854 32.7279C16.446 32.455 14.5993 30.8966 13.1658 28.2902C12.75 27.5342 12.3748 26.6989 12.0479 25.7972C13.9971 26.2869 16.1383 26.5758 18.3854 26.6204V32.7279ZM23.4065 32.1472C24.3567 31.2902 25.2 30.1745 25.9106 28.8824C26.4843 27.8389 26.9824 26.6648 27.3887 25.3888C28.6646 24.9823 29.8384 24.4848 30.8822 23.9108C32.1742 23.2002 33.2902 22.3569 34.147 21.4067C32.6459 26.5737 28.5736 30.6466 23.4065 32.1472ZM25.9522 25.7972C25.625 26.6989 25.2493 27.5342 24.8336 28.2902C23.4004 30.8966 21.5537 32.455 19.6143 32.7279V26.6204C21.8614 26.5758 24.0026 26.2869 25.9522 25.7972ZM27.7967 23.9521C28.6986 23.6251 29.5341 23.2499 30.2897 22.8341C32.8967 21.4006 34.4547 19.5539 34.7276 17.6145H28.6204C28.5753 19.8616 28.2863 22.0028 27.7967 23.9521ZM27.3913 17.6145C27.3403 20.0668 26.9875 22.3691 26.4027 24.4033C24.3689 24.9875 22.0666 25.3405 19.6143 25.3913V22.7388C20.5288 20.3958 22.3952 18.5292 24.7379 17.6145H27.3913ZM28.6204 16.3855H34.7276C34.4547 14.4461 32.8967 12.5994 30.2897 11.1659C29.5341 10.7501 28.6986 10.3749 27.7967 10.0479C28.2863 11.9972 28.5753 14.1384 28.6204 16.3855ZM26.4027 9.59667C26.9875 11.6309 27.3403 13.9332 27.3913 16.3855H24.738C22.3952 15.4708 20.5288 13.6042 19.6143 11.2612V8.60872C22.0666 8.65946 24.3689 9.01255 26.4027 9.59667ZM27.3887 8.61118C28.6646 9.01774 29.8384 9.51516 30.8822 10.0892C32.1742 10.7998 33.2902 11.6431 34.147 12.5933C32.6459 7.42627 28.5736 3.35345 23.4065 1.8528C24.3567 2.70976 25.2 3.8255 25.9106 5.11755C26.4843 6.16114 26.9824 7.33514 27.3887 8.61118ZM19.6143 1.2721C21.5537 1.54504 23.4004 3.10342 24.8336 5.70979C25.2493 6.46581 25.625 7.30104 25.9522 8.20287C24.0026 7.71304 21.8614 7.42426 19.6143 7.37959V1.2721Z" fill="#149519"/>
</g>
<defs>
<filter id="filter0_d_3_2" x="0" y="0" width="38" height="38" filterUnits="userSpaceOnUse" color-interpolation-filters="sRGB">
<feFlood flood-opacity="0" result="BackgroundImageFix"/>
<feColorMatrix in="SourceAlpha" type="matrix" values="0 0 0 0 0 0 0 0 0 0 0 0 0 0 0 0 0 0 127 0" result="hardAlpha"/>
<feOffset dy="2"/>
<feGaussianBlur stdDeviation="1"/>
<feComposite in2="hardAlpha" operator="out"/>
<feColorMatrix type="matrix" values="0 0 0 0 0 0 0 0 0 0 0 0 0 0 0 0 0 0 0.25 0"/>
<feBlend mode="normal" in2="BackgroundImageFix" result="effect1_dropShadow_3_2"/>
<feBlend mode="normal" in="SourceGraphic" in2="effect1_dropShadow_3_2" result="shape"/>
</filter>
</defs>
</svg>
