<svg width="88" height="88" viewBox="0 0 88 88" fill="none" xmlns="http://www.w3.org/2000/svg">
<path d="M43.9997 7.33398C23.7597 7.33398 7.33301 23.7607 7.33301 44.0006C7.33301 64.2407 23.7597 80.6673 43.9997 80.6673C64.2397 80.6673 80.6663 64.2407 80.6663 44.0006C80.6663 23.7607 64.2397 7.33398 43.9997 7.33398ZM43.9997 73.334C27.8297 73.334 14.6663 60.1706 14.6663 44.0006C14.6663 27.8307 27.8297 14.6673 43.9997 14.6673C60.1697 14.6673 73.333 27.8307 73.333 44.0006C73.333 60.1706 60.1697 73.334 43.9997 73.334ZM47.263 40.7006C40.7363 38.5373 37.583 37.1806 37.583 33.734C37.583 29.994 41.653 28.6373 44.2197 28.6373C49.023 28.6373 50.783 32.2673 51.1863 33.5506L56.9797 31.094C56.4297 29.4806 53.973 24.0907 47.2263 22.9173V18.334H40.8097V22.954C31.2763 25.0073 31.203 33.404 31.203 33.8073C31.203 42.1306 39.453 44.4773 43.4863 45.944C49.2797 47.9973 51.8463 49.8673 51.8463 53.3873C51.8463 57.5307 47.9963 59.2906 44.5863 59.2906C37.913 59.2906 36.0063 52.434 35.7863 51.6273L29.6997 54.084C32.0097 62.114 38.0597 64.2773 40.773 64.9373V69.6673H47.1897V65.1207C49.0963 64.7906 58.263 62.9573 58.263 53.314C58.2997 48.2173 56.063 43.744 47.263 40.7006Z" fill="#0096EB"/>
</svg>
