<svg width="24" height="24" viewBox="0 0 24 24" fill="none" xmlns="http://www.w3.org/2000/svg">
<path d="M15.0998 19.3708L16.0998 21.1108C15.1398 21.5508 14.0898 21.8408 12.9998 21.9508V19.9308C13.7398 19.8408 14.4398 19.6508 15.0998 19.3708ZM4.0698 13.0008H2.0498C2.1598 14.1008 2.4498 15.1408 2.8898 16.1008L4.6298 15.1008C4.3498 14.4408 4.1598 13.7408 4.0698 13.0008ZM15.0998 4.63078L16.0998 2.89078C15.1398 2.45078 14.0998 2.16078 12.9998 2.05078V4.07078C13.7398 4.16078 14.4398 4.35078 15.0998 4.63078ZM19.9298 11.0008H21.9498C21.8398 9.90078 21.5498 8.86078 21.1098 7.90078L19.3698 8.90078C19.6498 9.56078 19.8398 10.2608 19.9298 11.0008ZM8.8998 19.3708L7.89981 21.1108C8.85981 21.5508 9.9098 21.8408 10.9998 21.9508V19.9308C10.2598 19.8408 9.5598 19.6508 8.8998 19.3708ZM10.9998 4.07078V2.05078C9.8998 2.16078 8.85981 2.45078 7.89981 2.89078L8.8998 4.63078C9.5598 4.35078 10.2598 4.16078 10.9998 4.07078ZM18.3598 7.17078L20.0998 6.16078C19.4698 5.29078 18.6998 4.52078 17.8298 3.89078L16.8198 5.63078C17.4098 6.08078 17.9198 6.59078 18.3598 7.17078ZM4.6298 8.90078L2.8898 7.90078C2.4498 8.86078 2.1598 9.90078 2.0498 11.0008H4.0698C4.1598 10.2608 4.3498 9.56078 4.6298 8.90078ZM19.9298 13.0008C19.8398 13.7408 19.6498 14.4408 19.3698 15.1008L21.1098 16.1008C21.5498 15.1408 21.8398 14.0908 21.9498 13.0008H19.9298ZM16.8298 18.3608L17.8398 20.1008C18.7098 19.4708 19.4798 18.7008 20.1098 17.8308L18.3698 16.8208C17.9198 17.4108 17.4098 17.9208 16.8298 18.3608ZM7.1698 5.64078L6.1698 3.89078C5.2898 4.53078 4.5298 5.29078 3.8998 6.17078L5.6398 7.18078C6.0798 6.59078 6.5898 6.08078 7.1698 5.64078ZM5.6398 16.8308L3.8998 17.8308C4.5298 18.7008 5.2998 19.4708 6.1698 20.1008L7.1798 18.3608C6.5898 17.9208 6.0798 17.4108 5.6398 16.8308ZM12.9998 7.00078H10.9998V12.4108L15.2898 16.7008L16.6998 15.2908L12.9998 11.5908V7.00078Z" fill="#094367"/>
</svg>
