<svg width="32" height="33" viewBox="0 0 32 33" fill="none" xmlns="http://www.w3.org/2000/svg">
<path d="M14.667 20.4993H17.3337V23.166H14.667V20.4993ZM14.667 9.83268H17.3337V17.8327H14.667V9.83268ZM15.987 3.16602C8.62699 3.16602 2.66699 9.13935 2.66699 16.4993C2.66699 23.8594 8.62699 29.8327 15.987 29.8327C23.3603 29.8327 29.3337 23.8594 29.3337 16.4993C29.3337 9.13935 23.3603 3.16602 15.987 3.16602ZM16.0003 27.166C10.107 27.166 5.33366 22.3927 5.33366 16.4993C5.33366 10.606 10.107 5.83268 16.0003 5.83268C21.8937 5.83268 26.667 10.606 26.667 16.4993C26.667 22.3927 21.8937 27.166 16.0003 27.166Z" fill="#3E8D61"/>
</svg>
